<svg version="1" xmlns="http://www.w3.org/2000/svg" width="933.333" height="933.333" viewBox="0 0 700.000000 700.000000"><path d="M42.5 151.8c-.4.4 9 22.8 17.1 40.7.7 1.6 6.2 14.5 12.3 28.5 24.4 57 40.5 94.4 45.2 104.7 1 2.4 1.9 4.5 1.9 4.8 0 .2 1.4 3.5 3.1 7.2 1.7 3.7 4.8 10.8 6.9 15.8 3.5 8.3 14.9 34.8 19 44 1 2.2 5.1 11.9 9.3 21.5 13.8 32.2 26.9 62.5 29.1 67.5 1.2 2.7 2.9 6.6 3.6 8.5.7 1.9 1.7 4 2.2 4.6 1 1.3 77.6 1.8 79.6.5.6-.3 2.7-4.4 4.7-9.1 2-4.6 4.2-9.8 5-11.4.8-1.7 8-18.4 16-37.1 8-18.7 15.3-35.5 16.1-37.3.8-1.7 2-4.7 2.8-6.5.8-1.7 4.7-10.6 8.6-19.7 3.9-9.1 8.1-18.8 9.4-21.5 1.2-2.8 3.8-8.7 5.6-13.2 1.9-4.5 3.6-8 3.8-7.8.2.2.5 37.2.5 82.2l.2 81.8 40.3.2 40.2.1v-97.4l37.1.1h37l3.3 4.5c3 4.2 31.8 45.6 46.5 67 3.6 5.2 9 13.1 12.1 17.5l5.6 8 43.2.2c23.8 0 43.2-.1 43.2-.3 0-.4-6.2-9.6-7-10.4-.3-.3-.9-1.2-1.5-2.2-.5-.9-8-11.6-16.5-23.7-8.5-12.2-18.2-26.1-21.5-30.9-8.5-12.3-21.3-30.5-22.3-31.7-.4-.6-2.7-3.7-4.9-7.1l-4.1-6.1 6.9-3.3c11.4-5.4 21.9-12.9 31.5-22.5 11.7-11.5 18.2-21.3 25.4-38 1.5-3.5 4.9-15.2 5.5-19.2.3-2.1.9-6.3 1.4-9.3 2.1-13 .5-39-3.3-53.1-2.9-10.9-10.6-28.3-14.8-33.4-.4-.5-2.7-3.5-5-6.5-16.1-21.2-44.1-38.2-75.1-45.5-5.6-1.3-12-2.6-14.2-3-2.2-.3-5.3-.8-7-1-7.8-1.4-18.5-1.6-97.6-2-67.2-.4-84.9-.3-85.7.7-.5.7-2.9 5.8-5.2 11.3-2.3 5.5-5.1 12-6.3 14.5-4.4 9.9-5.9 13.4-16.2 37.5-5.9 13.7-11.3 26.3-12.1 28-3 6.9-14.6 33.7-14.9 34.5-.1.3-.8 2.1-1.7 4-.8 1.9-5 11.6-9.3 21.5-4.2 9.9-8.2 18.6-8.7 19.2-.6.7-.7 1.3-.4 1.3.4 0 .1 1.2-.8 2.7-1.7 3.4-5.6 12.1-5.6 12.8 0 .2-1.2 3-2.6 6.2-1.5 3.1-7.3 16.5-13 29.8-5.7 13.2-10.6 24-10.9 24-.6 0-4.4-8.4-14.5-32.5-2.9-6.9-6.1-14.3-7-16.5-4-8.9-23-53.7-23-54.1 0-.2-1.1-2.7-2.4-5.6-2.4-5.2-46.8-109.5-50.9-119.3-1.1-2.8-2.4-5.4-2.9-5.9-.4-.6-.8-1.6-.8-2.3 0-.7-1.1-3.6-2.5-6.6l-2.5-5.3H85.9c-23.6 0-43.2.2-43.4.4zM508 218.4c1.3.3 4.2.8 6.5 1.1 5.3.8 15.8 4.1 20.9 6.7 5.9 3 15.1 10.3 17.7 14.1 1.3 1.7 2.6 3.4 3 3.7 1.4 1.1 6.1 12.6 7.4 18.4 1.8 7.8 1.7 23.9-.1 31.9-5.6 23.9-23.9 38.9-52.7 43.1-8 1.2-19.2 1.6-48.1 1.6H425V217.3l40.3.2c22.1.2 41.3.6 42.7.9z"/></svg>